<svg width="21" height="20" viewBox="0 0 21 20" fill="none" xmlns="http://www.w3.org/2000/svg">
<path d="M3.83333 4.99984L8.92303 8.84339L8.92473 8.8448C9.48987 9.25924 9.77261 9.46658 10.0823 9.54668C10.356 9.61748 10.6438 9.61748 10.9175 9.54668C11.2274 9.46651 11.511 9.25856 12.0771 8.84339C12.0771 8.84339 15.3417 6.33812 17.1667 4.99984M3 13.1667V6.83333C3 5.89991 3 5.43285 3.18166 5.07633C3.34144 4.76273 3.59623 4.50795 3.90983 4.34816C4.26635 4.1665 4.73341 4.1665 5.66683 4.1665H15.3335C16.2669 4.1665 16.733 4.1665 17.0895 4.34816C17.4031 4.50795 17.6587 4.76273 17.8185 5.07633C18 5.43251 18 5.899 18 6.8306V13.1695C18 14.1011 18 14.5669 17.8185 14.9231C17.6587 15.2367 17.4031 15.4919 17.0895 15.6517C16.7333 15.8332 16.2675 15.8332 15.3359 15.8332H5.66409C4.73249 15.8332 4.266 15.8332 3.90983 15.6517C3.59623 15.4919 3.34144 15.2367 3.18166 14.9231C3 14.5666 3 14.1001 3 13.1667Z" stroke="#D1CDA7" stroke-linecap="round" stroke-linejoin="round"/>
</svg>
